<svg width="24" height="24" viewBox="0 0 24 24" fill="none" xmlns="http://www.w3.org/2000/svg">
<path d="M6 7C6 7.55 6.45 8 7 8H14.59L5.71 16.88C5.61742 16.9726 5.54398 17.0825 5.49387 17.2035C5.44377 17.3244 5.41798 17.4541 5.41798 17.585C5.41798 17.7159 5.44377 17.8456 5.49387 17.9665C5.54398 18.0875 5.61742 18.1974 5.71 18.29C5.80258 18.3826 5.91249 18.456 6.03346 18.5061C6.15442 18.5562 6.28407 18.582 6.415 18.582C6.54593 18.582 6.67558 18.5562 6.79654 18.5061C6.91751 18.456 7.02742 18.3826 7.12 18.29L16 9.41V17C16 17.55 16.45 18 17 18C17.55 18 18 17.55 18 17V7C18 6.45 17.55 6 17 6H7C6.45 6 6 6.45 6 7Z" fill="white"/>
</svg>
