<svg width="28" height="28" viewBox="0 0 28 28" fill="none" xmlns="http://www.w3.org/2000/svg">
<path d="M19.25 7H15.75C15.1057 7 14.5834 7.52234 14.5834 8.16667V11.6667H19.25C19.3827 11.6637 19.5086 11.7255 19.5874 11.8322C19.6663 11.939 19.6885 12.0773 19.6467 12.2033L18.7834 14.77C18.7038 15.0055 18.4836 15.1648 18.235 15.1667H14.5834V23.9167C14.5834 24.2388 14.3221 24.5 14 24.5H11.0834C10.7612 24.5 10.5 24.2388 10.5 23.9167V15.1667H8.75002C8.42786 15.1667 8.16669 14.9054 8.16669 14.5833V12.25C8.16669 11.9279 8.42786 11.6667 8.75002 11.6667H10.5V8.16667C10.5 5.58934 12.5894 3.5 15.1667 3.5H19.25C19.5721 3.5 19.8334 3.76117 19.8334 4.08333V6.41667C19.8334 6.73883 19.5721 7 19.25 7Z" fill="white"/>
</svg>
