<svg width="80" height="80" viewBox="0 0 80 80" fill="none" xmlns="http://www.w3.org/2000/svg">
<g clip-path="url(#clip0_7_200)">
<path d="M39.9999 4.44446C32.9677 4.44446 26.0934 6.52975 20.2463 10.4366C14.3992 14.3435 9.84197 19.8966 7.15086 26.3935C4.45974 32.8904 3.75562 40.0395 5.12754 46.9366C6.49946 53.8337 9.8858 60.1691 14.8583 65.1416C19.8309 70.1141 26.1663 73.5005 33.0634 74.8724C39.9605 76.2443 47.1095 75.5402 53.6064 72.8491C60.1034 70.158 65.6564 65.6007 69.5633 59.7536C73.4702 53.9065 75.5555 47.0322 75.5555 40C75.5555 30.5701 71.8094 21.5264 65.1415 14.8584C58.4735 8.19048 49.4298 4.44446 39.9999 4.44446ZM63.2221 28.0667L34.0221 57.2445L16.7777 40C16.1883 39.4106 15.8572 38.6113 15.8572 37.7778C15.8572 36.9443 16.1883 36.1449 16.7777 35.5556C17.3671 34.9662 18.1664 34.6351 18.9999 34.6351C19.8334 34.6351 20.6328 34.9662 21.2221 35.5556L34.0666 48.4L58.8221 23.6667C59.114 23.3749 59.4604 23.1434 59.8417 22.9854C60.223 22.8275 60.6316 22.7462 61.0444 22.7462C61.4571 22.7462 61.8657 22.8275 62.247 22.9854C62.6283 23.1434 62.9748 23.3749 63.2666 23.6667C63.5584 23.9585 63.7899 24.305 63.9478 24.6862C64.1058 25.0675 64.1871 25.4762 64.1871 25.8889C64.1871 26.3016 64.1058 26.7103 63.9478 27.0916C63.7899 27.4729 63.5584 27.8193 63.2666 28.1111L63.2221 28.0667Z" fill="white"/>
</g>
<defs>
<clipPath id="clip0_7_200">
<rect width="80" height="80" fill="white"/>
</clipPath>
</defs>
</svg>
