<svg width="126" height="28" viewBox="0 0 126 28" fill="none" xmlns="http://www.w3.org/2000/svg">
<g clip-path="url(#clip0_7_120)">
<path fill-rule="evenodd" clip-rule="evenodd" d="M118.624 27.5546L117.884 25.1715C117.53 24.2758 116.887 24.1564 116.655 24.1455H113.328C113.067 24.1591 112.335 24.2975 112.012 25.4266L111.926 25.4076L111.262 27.5546H118.624Z" fill="#72C7F0"/>
<path fill-rule="evenodd" clip-rule="evenodd" d="M3.69998 27.5551H11.5444L10.2418 24.7703C9.9142 24.4381 9.50182 24.2111 9.0538 24.1162H0.357422L1.42037 26.4233L1.51416 26.3283C1.51416 26.3283 1.9779 27.509 3.69998 27.5551Z" fill="#72C7F0"/>
<path fill-rule="evenodd" clip-rule="evenodd" d="M52.0802 4.55975H55.8917V0.822266H38.6162V4.55975H45.2518V24.8567H49.032V4.52989H52.0802V4.55975Z" fill="white"/>
<path fill-rule="evenodd" clip-rule="evenodd" d="M126.259 24.8567L117.857 2.05722L117.828 1.9568L117.758 1.77223C117.679 1.5444 117.547 1.34057 117.373 1.17903C117.2 1.01748 116.991 0.903284 116.765 0.84668H113.068C112.756 0.910083 112.477 1.09191 112.287 1.35695L103.64 24.8567H107.712L114.337 6.72026L114.491 6.44883C114.491 6.44883 114.788 5.63457 115.387 6.30498L121.77 24.854L126.259 24.8567Z" fill="white"/>
<path fill-rule="evenodd" clip-rule="evenodd" d="M88.031 24.3627L96.6935 0.84668H92.2046L85.7514 19.2545C85.7238 19.3213 85.6809 19.38 85.6263 19.4252C85.5717 19.4704 85.5071 19.5009 85.4385 19.5138C85.3698 19.5267 85.2992 19.5217 85.2328 19.4992C85.1665 19.4766 85.1066 19.4374 85.0584 19.3848L78.5608 0.84668H74.0693L82.6954 24.2378C82.8539 24.5178 83.0992 24.7332 83.391 24.8485H87.3849C87.6429 24.7593 87.8684 24.5897 88.031 24.3627V24.3627Z" fill="white"/>
<path fill-rule="evenodd" clip-rule="evenodd" d="M15.7514 16.1742H15.6316C15.4909 17.0401 15.061 16.6275 14.8787 16.4077L4.38726 1.41972C3.9969 1.09181 3.52165 0.892435 3.02211 0.847024H2.79545V0.814453H0V21.4425H8.70158L7.58392 19.2712L7.56568 19.2902C7.56568 19.2902 7.10195 18.1013 5.37987 18.0579V18.009H3.88445V9.01683C4.07724 8.00714 4.70771 8.95169 4.70771 8.95169L4.72074 8.92455L15.2955 24.1568C15.7777 24.5448 16.3718 24.7514 16.9811 24.743H19.3076V0.857881H15.7514V16.1742Z" fill="white"/>
<path fill-rule="evenodd" clip-rule="evenodd" d="M102.14 24.8567V0.846694H102.127V0.822266H98.3154V0.846694V24.8567V24.9083H102.127V24.8567H102.14Z" fill="white"/>
<path fill-rule="evenodd" clip-rule="evenodd" d="M36.8357 21.144H25.6591V14.5321H33.9465L32.808 11.8532C32.6181 11.5725 32.3762 11.3342 32.0966 11.1524C31.8169 10.9706 31.5052 10.849 31.1797 10.7947H25.6591V4.55194H36.8357V0.814453H21.8477V24.8815H36.8357V21.144Z" fill="white"/>
<path fill-rule="evenodd" clip-rule="evenodd" d="M72.8487 24.8815V21.144H61.4847V14.5321H69.2118L68.1541 12.0486C67.9702 11.7171 67.7176 11.4324 67.4148 11.2155C67.1119 10.9986 66.7664 10.8548 66.4034 10.7947H61.4847V4.55194H72.854V0.814453H57.668V24.8815H72.8487Z" fill="white"/>
</g>
<defs>
<clipPath id="clip0_7_120">
<rect width="126" height="28" fill="white"/>
</clipPath>
</defs>
</svg>
